<?xml version="1.0" encoding="UTF-8"?> <svg xmlns="http://www.w3.org/2000/svg" width="249" height="97" viewBox="0 0 249 97" fill="none"><path d="M29 23.5H66.1037C76.054 23.5 85.865 21.1607 94.7449 16.6709L100.55 13.7356C116.022 5.91286 134.447 6.68981 149.205 15.7873C157.385 20.8298 166.805 23.5 176.414 23.5H220C235.464 23.5 248 36.036 248 51.5C248 66.964 235.464 79.5 220 79.5H175.783C166.557 79.5 157.436 81.4657 149.029 85.2663C133.93 92.0917 116.749 92.6889 101.213 86.9283L92.9015 83.8464C85.1487 80.9717 76.9461 79.5 68.6775 79.5H29C13.536 79.5 1 66.964 1 51.5C1 36.036 13.536 23.5 29 23.5Z" fill="#1C110A" stroke="#E9B44C" stroke-width="2"></path><path d="M24.794 42.2155C23.9447 42.2155 23.2043 42.5522 22.5729 43.2256C21.9631 43.8989 21.6583 44.7135 21.6583 45.6692V61.5689C21.6583 62.5246 21.8651 63.2849 22.2789 63.8496C22.7144 64.4143 23.3023 64.6967 24.0427 64.6967C24.8048 64.6967 25.4037 64.4143 25.8392 63.8496C26.2965 63.2632 26.5251 62.5029 26.5251 61.5689V55.1504C26.5251 53.9992 25.7521 53.4236 24.206 53.4236V52.218H31V53.4236C30.3467 53.4236 30.0201 53.8037 30.0201 54.5639V65.6742H29.2688L28.3543 64.4687C27.3744 65.4895 25.9263 66 24.0101 66C20.0033 66 18 63.6759 18 59.0276V47.8847C18 45.6258 18.5553 43.8989 19.6658 42.7043C20.7764 41.5096 22.3877 40.9123 24.5 40.9123C25.3274 40.9123 25.9154 40.8471 26.2638 40.7168C26.6123 40.5865 26.8736 40.3476 27.0477 40H28.1583L29.5955 45.8972L28.4849 46.1905C28.0712 45.1045 27.6901 44.279 27.3417 43.7143C26.9933 43.1496 26.6231 42.7586 26.2312 42.5414C25.861 42.3241 25.3819 42.2155 24.794 42.2155Z" fill="url(#paint0_linear_3_92)"></path><path d="M40.36 43.3C42.8133 43.3 44.7067 44.0467 46.04 45.54C47.3733 47.0333 48.04 49.14 48.04 51.86V57.54C48.04 63.2467 45.48 66.1 40.36 66.1C37.8533 66.1 35.9333 65.3667 34.6 63.9C33.2667 62.4333 32.6 60.3133 32.6 57.54V51.86C32.6 49.0333 33.2533 46.9 34.56 45.46C35.8933 44.02 37.8267 43.3 40.36 43.3ZM40.36 64.54C41.32 64.54 42.1067 64.1933 42.72 63.5C43.3333 62.78 43.64 61.86 43.64 60.74V48.7C43.64 47.58 43.3333 46.66 42.72 45.94C42.1067 45.22 41.32 44.86 40.36 44.86C39.4267 44.86 38.64 45.2333 38 45.98C37.3867 46.7 37.08 47.6067 37.08 48.7V60.74C37.08 61.8867 37.3733 62.8067 37.96 63.5C38.5733 64.1933 39.3733 64.54 40.36 64.54Z" fill="url(#paint1_linear_3_92)"></path><path d="M47.96 64.02C48.8133 64.02 49.4267 63.8867 49.8 63.62C50.1733 63.3533 50.36 62.9133 50.36 62.3V47.1C50.36 46.4867 50.1733 46.0467 49.8 45.78C49.4267 45.5133 48.8133 45.38 47.96 45.38V43.9H57.16V45.38C56.3067 45.38 55.6933 45.5133 55.32 45.78C54.9467 46.0467 54.76 46.4867 54.76 47.1V63.94H57.28C58.48 63.94 59.4 63.8067 60.04 63.54C60.68 63.2467 61.16 62.7133 61.48 61.94C61.8 61.1667 62.04 60.0467 62.2 58.58H63.52V66.34H62.16C62.0533 66.02 61.8 65.7933 61.4 65.66C61 65.5533 60.3333 65.5 59.4 65.5H47.96V64.02Z" fill="url(#paint2_linear_3_92)"></path><path d="M65.96 64.02C66.8133 64.02 67.4267 63.8867 67.8 63.62C68.1733 63.3533 68.36 62.9133 68.36 62.3V47.1C68.36 46.4867 68.1733 46.0467 67.8 45.78C67.4267 45.5133 66.8133 45.38 65.96 45.38V43.9H75.48C78.0133 43.9 79.88 44.5933 81.08 45.98C82.28 47.3667 82.88 49.5267 82.88 52.46V56.94C82.88 62.6467 80.4133 65.5 75.48 65.5H65.96V64.02ZM75.48 45.46H72.84V63.94H75.48C76.3867 63.94 77.1067 63.5933 77.64 62.9C78.2 62.18 78.48 61.2333 78.48 60.06V49.34C78.48 48.1667 78.2 47.2333 77.64 46.54C77.1067 45.82 76.3867 45.46 75.48 45.46Z" fill="url(#paint3_linear_3_92)"></path><path d="M84.96 64.02C85.8133 64.02 86.4267 63.8867 86.8 63.62C87.1733 63.3533 87.36 62.9133 87.36 62.3V47.1C87.36 46.4867 87.1733 46.0467 86.8 45.78C86.4267 45.5133 85.8133 45.38 84.96 45.38V43.9H96.8C97.4933 43.9 97.9867 43.8467 98.28 43.74C98.5733 43.6067 98.7333 43.4067 98.76 43.14H100.08L101.72 49.62L100.4 49.98C99.92 48.7 99.4533 47.74 99 47.1C98.5733 46.4333 98.0133 45.9933 97.32 45.78C96.6533 45.5667 95.7333 45.46 94.56 45.46H91.72V54.06H94.6C95.64 54.06 96.16 53.3667 96.16 51.98H97.44V58.06H96.16C96.16 56.4333 95.64 55.62 94.6 55.62H91.72V63.94H95.88C97.08 63.94 98 63.8067 98.64 63.54C99.3067 63.2733 99.7867 62.7667 100.08 62.02C100.4 61.2467 100.64 60.1267 100.8 58.66H102.12V66.34H100.76C100.653 66.02 100.4 65.7933 100 65.66C99.6 65.5533 98.9333 65.5 98 65.5H84.96V64.02Z" fill="url(#paint4_linear_3_92)"></path><path d="M107.36 62.3V47.1C107.36 46.4867 107.173 46.0467 106.8 45.78C106.427 45.5133 105.813 45.38 104.96 45.38V43.9H111.68L120.28 57.74V47.1C120.28 46.46 120.107 46.02 119.76 45.78C119.413 45.5133 118.787 45.38 117.88 45.38V43.9H124.44V45.38C123.533 45.38 122.907 45.5133 122.56 45.78C122.213 46.02 122.04 46.46 122.04 47.1V65.5H120.24L109.12 47.5V62.3C109.12 62.94 109.293 63.3933 109.64 63.66C109.987 63.9 110.613 64.02 111.52 64.02V65.5H104.96V64.02C105.867 64.02 106.493 63.9 106.84 63.66C107.187 63.3933 107.36 62.94 107.36 62.3Z" fill="url(#paint5_linear_3_92)"></path><path d="M138.505 63.3483C138.393 63.7654 138.547 64.0931 138.968 64.3315C139.418 64.5499 140.105 64.6592 141.032 64.6592V65.7615H134V64.6592C134.814 64.6592 135.418 64.5599 135.811 64.3613C136.203 64.1626 136.471 63.825 136.611 63.3483L142.926 43H144.947L151.474 63.4079C151.614 63.9045 151.853 64.2421 152.189 64.4208C152.555 64.5797 153.158 64.6592 154 64.6592V65.7615H144.232V64.6592C145.242 64.6592 145.944 64.5698 146.337 64.391C146.758 64.1924 146.898 63.8747 146.758 63.4377L145.874 60.4286H139.389L138.505 63.3483ZM139.768 59.2369H145.495L142.716 49.7331L139.768 59.2369Z" fill="url(#paint6_linear_3_92)"></path><path d="M154.96 64.7989C155.804 64.7989 156.411 64.6671 156.78 64.4033C157.149 64.1395 157.334 63.7044 157.334 63.0978V48.0648C157.334 47.4583 157.149 47.0231 156.78 46.7593C156.411 46.4956 155.804 46.3637 154.96 46.3637V44.9H164.296C166.722 44.9 168.503 45.4538 169.637 46.5615C170.771 47.6692 171.338 49.3967 171.338 51.7439C171.338 52.878 171.048 53.8671 170.468 54.711C169.887 55.5286 168.964 56.2538 167.698 56.8868C169.914 57.8099 171.022 59.4582 171.022 61.8319C171.022 62.6495 171.18 63.3483 171.496 63.9286C171.839 64.5088 172.248 64.7989 172.723 64.7989H172.96V66.2626H172.604C170.678 66.2626 169.254 65.9066 168.331 65.1945C167.434 64.4824 166.986 63.3616 166.986 61.8319C166.986 60.6978 166.697 59.722 166.116 58.9044C165.536 58.0605 164.863 57.6385 164.098 57.6385H163.268V56.1747H164.296C165.167 56.1747 165.866 55.8187 166.393 55.1066C166.92 54.3945 167.184 53.4582 167.184 52.2978V50.2802C167.184 49.1198 166.92 48.1967 166.393 47.511C165.866 46.7989 165.167 46.4428 164.296 46.4428H161.685V63.0978C161.685 63.7044 161.87 64.1395 162.239 64.4033C162.608 64.6671 163.215 64.7989 164.059 64.7989V66.2626H154.96V64.7989Z" fill="url(#paint7_linear_3_92)"></path><path d="M182.36 43.3C184.813 43.3 186.707 44.0467 188.04 45.54C189.373 47.0333 190.04 49.14 190.04 51.86V57.54C190.04 63.2467 187.48 66.1 182.36 66.1C179.853 66.1 177.933 65.3667 176.6 63.9C175.267 62.4333 174.6 60.3133 174.6 57.54V51.86C174.6 49.0333 175.253 46.9 176.56 45.46C177.893 44.02 179.827 43.3 182.36 43.3ZM182.36 64.54C183.32 64.54 184.107 64.1933 184.72 63.5C185.333 62.78 185.64 61.86 185.64 60.74V48.7C185.64 47.58 185.333 46.66 184.72 45.94C184.107 45.22 183.32 44.86 182.36 44.86C181.427 44.86 180.64 45.2333 180 45.98C179.387 46.7 179.08 47.6067 179.08 48.7V60.74C179.08 61.8867 179.373 62.8067 179.96 63.5C180.573 64.1933 181.373 64.54 182.36 64.54Z" fill="url(#paint8_linear_3_92)"></path><path d="M193.36 62.3V47.1C193.36 46.4867 193.173 46.0467 192.8 45.78C192.427 45.5133 191.813 45.38 190.96 45.38V43.9H198.04L202.88 58.54L207 43.9H214.28V45.26C213.373 45.26 212.747 45.3933 212.4 45.66C212.053 45.9 211.88 46.34 211.88 46.98V62.3C211.88 62.94 212.053 63.3933 212.4 63.66C212.747 63.9 213.373 64.02 214.28 64.02V65.5H205.4V64.02C206.307 64.02 206.933 63.9 207.28 63.66C207.627 63.3933 207.8 62.94 207.8 62.3V47.22L202.76 65.5H201.12L195.12 47.18V62.3C195.12 62.94 195.293 63.3933 195.64 63.66C195.987 63.9 196.613 64.02 197.52 64.02V65.5H190.96V64.02C191.867 64.02 192.493 63.9 192.84 63.66C193.187 63.3933 193.36 62.94 193.36 62.3Z" fill="url(#paint9_linear_3_92)"></path><path d="M218.96 62.26C218.773 62.7933 218.893 63.22 219.32 63.54C219.773 63.86 220.453 64.02 221.36 64.02V65.5H214.68V64.02C215.4 64.02 215.947 63.8867 216.32 63.62C216.693 63.3533 216.973 62.9 217.16 62.26L223.16 43.74H225.08L231.32 62.34C231.56 63.0333 231.827 63.4867 232.12 63.7C232.413 63.9133 232.973 64.02 233.8 64.02V65.5H224.6V64.02C226.573 64.02 227.387 63.4733 227.04 62.38L226.2 59.7H219.8L218.96 62.26ZM220.32 58.18H225.72L223.08 49.78L220.32 58.18Z" fill="url(#paint10_linear_3_92)"></path><defs><linearGradient id="paint0_linear_3_92" x1="24.2877" y1="34.7218" x2="24.2877" y2="73.8195" gradientUnits="userSpaceOnUse"><stop stop-color="#E9B44C"></stop><stop offset="1" stop-color="#968461"></stop></linearGradient><linearGradient id="paint1_linear_3_92" x1="40.5" y1="27.5" x2="40.5" y2="75.5" gradientUnits="userSpaceOnUse"><stop stop-color="#E9B44C"></stop><stop offset="1" stop-color="#968461"></stop></linearGradient><linearGradient id="paint2_linear_3_92" x1="56" y1="27.5" x2="56" y2="75.5" gradientUnits="userSpaceOnUse"><stop stop-color="#E9B44C"></stop><stop offset="1" stop-color="#968461"></stop></linearGradient><linearGradient id="paint3_linear_3_92" x1="75" y1="27.5" x2="75" y2="75.5" gradientUnits="userSpaceOnUse"><stop stop-color="#E9B44C"></stop><stop offset="1" stop-color="#968461"></stop></linearGradient><linearGradient id="paint4_linear_3_92" x1="93.5" y1="27.5" x2="93.5" y2="75.5" gradientUnits="userSpaceOnUse"><stop stop-color="#E9B44C"></stop><stop offset="1" stop-color="#968461"></stop></linearGradient><linearGradient id="paint5_linear_3_92" x1="115" y1="27.5" x2="115" y2="75.5" gradientUnits="userSpaceOnUse"><stop stop-color="#E9B44C"></stop><stop offset="1" stop-color="#968461"></stop></linearGradient><linearGradient id="paint6_linear_3_92" x1="144.526" y1="37.4586" x2="144.526" y2="73.2096" gradientUnits="userSpaceOnUse"><stop stop-color="#E9B44C"></stop><stop offset="1" stop-color="#968461"></stop></linearGradient><linearGradient id="paint7_linear_3_92" x1="163.901" y1="28.6802" x2="163.901" y2="76.1527" gradientUnits="userSpaceOnUse"><stop stop-color="#E9B44C"></stop><stop offset="1" stop-color="#968461"></stop></linearGradient><linearGradient id="paint8_linear_3_92" x1="182.5" y1="27.5" x2="182.5" y2="75.5" gradientUnits="userSpaceOnUse"><stop stop-color="#E9B44C"></stop><stop offset="1" stop-color="#968461"></stop></linearGradient><linearGradient id="paint9_linear_3_92" x1="203" y1="27.5" x2="203" y2="75.5" gradientUnits="userSpaceOnUse"><stop stop-color="#E9B44C"></stop><stop offset="1" stop-color="#968461"></stop></linearGradient><linearGradient id="paint10_linear_3_92" x1="224.5" y1="27.5" x2="224.5" y2="75.5" gradientUnits="userSpaceOnUse"><stop stop-color="#E9B44C"></stop><stop offset="1" stop-color="#968461"></stop></linearGradient></defs></svg> 